<?xml version="1.0" encoding="UTF-8"?>
<!DOCTYPE svg PUBLIC "-//W3C//DTD SVG 1.1//EN" "http://www.w3.org/Graphics/SVG/1.1/DTD/svg11.dtd">
<svg version="1.1" xmlns="http://www.w3.org/2000/svg" xmlns:xlink="http://www.w3.org/1999/xlink" x="0" y="0" width="1024" height="1024" viewBox="0, 0, 1024, 1024">
  <g id="Magnifying_Glass_2_Copy">
    <path d="M256,0 L768,0 C909.385,0 1024,114.615 1024,256 L1024,768 C1024,909.385 909.385,1024 768,1024 L256,1024 C114.615,1024 0,909.385 0,768 L0,256 C0,114.615 114.615,0 256,0 z" fill="#FFFFFF"/>
    <g>
      <path d="M616.804,540.764 L881.391,805.685 L881.391,805.685 L881.391,805.685 C898.091,822.407 894.707,852.906 873.832,873.808 C852.956,894.709 822.495,898.098 805.795,881.377 L805.792,881.374 L541.208,616.456 L616.804,540.764 z" fill="#404040"/>
      <g>
        <path d="M528.105,561.455 L562.879,526.637 L600.677,564.482 L565.903,599.301 L528.105,561.455 z" fill="#FFBF40"/>
        <path d="M528.105,561.455 L562.879,526.637 L600.677,564.482 L565.903,599.301 L528.105,561.455 z" fill-opacity="0" stroke="#000000" stroke-width="0.042"/>
      </g>
      <path d="M541.208,601.318 L601.685,540.764 C605.86,536.584 612.629,536.584 616.804,540.764 L616.804,540.764 C620.979,544.945 620.979,551.722 616.804,555.903 L556.327,616.456 C552.152,620.636 545.383,620.636 541.208,616.456 L541.208,616.456 C537.033,612.276 537.033,605.498 541.208,601.318 z" fill="#404040"/>
      <g>
        <path d="M548.264,548.839 C443.887,653.348 274.659,653.348 170.282,548.839 C65.906,444.331 65.906,274.889 170.282,170.381 C274.659,65.873 443.887,65.873 548.264,170.381 C652.64,274.889 652.64,444.331 548.264,548.839 z" fill="#808080"/>
        <path d="M548.264,548.839 C443.887,653.348 274.659,653.348 170.282,548.839 C65.906,444.331 65.906,274.889 170.282,170.381 C274.659,65.873 443.887,65.873 548.264,170.381 C652.64,274.889 652.64,444.331 548.264,548.839 z" fill-opacity="0" stroke="#000000" stroke-width="0.042"/>
      </g>
      <g>
        <path d="M510.97,510.489 C427.468,594.096 292.086,594.096 208.585,510.489 C125.083,426.882 125.083,291.329 208.585,207.722 C292.086,124.116 427.468,124.116 510.97,207.722 C594.471,291.329 594.471,426.882 510.97,510.489 z" fill="#BFDFFF" fill-opacity="0.5"/>
        <path d="M510.97,510.489 C427.468,594.096 292.086,594.096 208.585,510.489 C125.083,426.882 125.083,291.329 208.585,207.722 C292.086,124.116 427.468,124.116 510.97,207.722 C594.471,291.329 594.471,426.882 510.97,510.489 z" fill-opacity="0" stroke="#000000" stroke-width="0.042"/>
      </g>
    </g>
  </g>
</svg>
