<?xml version="1.0" encoding="UTF-8"?>
<!DOCTYPE svg PUBLIC "-//W3C//DTD SVG 1.1//EN" "http://www.w3.org/Graphics/SVG/1.1/DTD/svg11.dtd">
<svg version="1.1" xmlns="http://www.w3.org/2000/svg" xmlns:xlink="http://www.w3.org/1999/xlink" x="0" y="0" width="1024" height="1024" viewBox="0, 0, 1024, 1024">
  <g id="Background">
    <rect x="0" y="0" width="1024" height="1024" fill="#000000" fill-opacity="0"/>
  </g>
  <g id="Magnifying_Glass_2_Copy">
    <path d="M256,0 L768,0 C909.385,0 1024,114.615 1024,256 L1024,768 C1024,909.385 909.385,1024 768,1024 L256,1024 C114.615,1024 0,909.385 0,768 L0,256 C0,114.615 114.615,0 256,0 z" fill="#FFFFFF"/>
    <g>
      <path d="M633.085,544.689 L940.667,852.659 L940.667,852.659 L940.667,852.659 C960.081,872.099 956.147,907.554 931.88,931.852 C907.611,956.15 872.2,960.089 852.787,940.651 L852.783,940.648 L545.204,632.681 L633.085,544.689 z" fill="#404040"/>
      <g>
        <path d="M529.972,568.741 L570.397,528.266 L614.337,572.26 L573.912,612.737 L529.972,568.741 z" fill="#FFBF40"/>
        <path d="M529.972,568.741 L570.397,528.266 L614.337,572.26 L573.912,612.737 L529.972,568.741 z" fill-opacity="0" stroke="#000000" stroke-width="0.042"/>
      </g>
      <path d="M545.204,615.083 L615.509,544.689 C620.362,539.829 628.231,539.829 633.085,544.689 L633.085,544.689 C637.938,549.549 637.938,557.427 633.085,562.288 L562.78,632.681 C557.927,637.54 550.058,637.54 545.204,632.681 L545.204,632.681 C540.351,627.821 540.351,619.942 545.204,615.083 z" fill="#404040"/>
      <g>
        <path d="M553.407,554.075 C432.069,675.567 235.341,675.567 114.003,554.075 C-7.334,432.585 -7.334,235.608 114.003,114.118 C235.341,-7.373 432.069,-7.373 553.407,114.118 C674.744,235.608 674.744,432.585 553.407,554.075 z" fill="#808080"/>
        <path d="M553.407,554.075 C432.069,675.567 235.341,675.567 114.003,554.075 C-7.334,432.585 -7.334,235.608 114.003,114.118 C235.341,-7.373 432.069,-7.373 553.407,114.118 C674.744,235.608 674.744,432.585 553.407,554.075 z" fill-opacity="0" stroke="#000000" stroke-width="0.042"/>
      </g>
      <g>
        <path d="M510.053,509.494 C412.982,606.687 255.6,606.687 158.53,509.494 C61.459,412.3 61.459,254.72 158.53,157.527 C255.6,60.335 412.982,60.335 510.053,157.527 C607.123,254.72 607.123,412.3 510.053,509.494 z" fill="#BFDFFF" fill-opacity="0.5"/>
        <path d="M510.053,509.494 C412.982,606.687 255.6,606.687 158.53,509.494 C61.459,412.3 61.459,254.72 158.53,157.527 C255.6,60.335 412.982,60.335 510.053,157.527 C607.123,254.72 607.123,412.3 510.053,509.494 z" fill-opacity="0" stroke="#000000" stroke-width="0.042"/>
      </g>
    </g>
  </g>
</svg>
